<mxfile host="app.diagrams.net" modified="2024-03-06T15:27:29.281Z" agent="Mozilla/5.0 (Windows NT 10.0; Win64; x64) AppleWebKit/537.36 (KHTML, like Gecko) Chrome/122.0.0.0 Safari/537.36" etag="F9zQLdL3c8JV30splXiC" version="24.0.1" type="github">
  <diagram name="Page-1" id="2YBvvXClWsGukQMizWep">
    <mxGraphModel dx="2288" dy="699" grid="1" gridSize="10" guides="1" tooltips="1" connect="1" arrows="1" fold="1" page="1" pageScale="1" pageWidth="850" pageHeight="1100" math="0" shadow="0">
      <root>
        <mxCell id="0" />
        <mxCell id="1" parent="0" />
        <mxCell id="MjS71RlbzoYHdgvzvM8Z-2" value="" style="rounded=0;whiteSpace=wrap;html=1;" parent="1" vertex="1">
          <mxGeometry x="-10" y="10" width="970" height="290" as="geometry" />
        </mxCell>
        <mxCell id="MjS71RlbzoYHdgvzvM8Z-3" value="Gateway" style="shape=umlLifeline;perimeter=lifelinePerimeter;whiteSpace=wrap;html=1;container=0;dropTarget=0;collapsible=0;recursiveResize=0;outlineConnect=0;portConstraint=eastwest;newEdgeStyle={&quot;edgeStyle&quot;:&quot;elbowEdgeStyle&quot;,&quot;elbow&quot;:&quot;vertical&quot;,&quot;curved&quot;:0,&quot;rounded&quot;:0};" parent="1" vertex="1">
          <mxGeometry y="50" width="100" height="220" as="geometry" />
        </mxCell>
        <mxCell id="MjS71RlbzoYHdgvzvM8Z-4" value="" style="html=1;points=[];perimeter=orthogonalPerimeter;outlineConnect=0;targetShapes=umlLifeline;portConstraint=eastwest;newEdgeStyle={&quot;edgeStyle&quot;:&quot;elbowEdgeStyle&quot;,&quot;elbow&quot;:&quot;vertical&quot;,&quot;curved&quot;:0,&quot;rounded&quot;:0};" parent="MjS71RlbzoYHdgvzvM8Z-3" vertex="1">
          <mxGeometry x="45" y="70" width="10" height="120" as="geometry" />
        </mxCell>
        <mxCell id="MjS71RlbzoYHdgvzvM8Z-5" value="Security-Profile-serivce: controller" style="shape=umlLifeline;perimeter=lifelinePerimeter;whiteSpace=wrap;html=1;container=0;dropTarget=0;collapsible=0;recursiveResize=0;outlineConnect=0;portConstraint=eastwest;newEdgeStyle={&quot;edgeStyle&quot;:&quot;elbowEdgeStyle&quot;,&quot;elbow&quot;:&quot;vertical&quot;,&quot;curved&quot;:0,&quot;rounded&quot;:0};" parent="1" vertex="1">
          <mxGeometry x="290" y="50" width="100" height="220" as="geometry" />
        </mxCell>
        <mxCell id="MjS71RlbzoYHdgvzvM8Z-6" value="" style="html=1;points=[];perimeter=orthogonalPerimeter;outlineConnect=0;targetShapes=umlLifeline;portConstraint=eastwest;newEdgeStyle={&quot;edgeStyle&quot;:&quot;elbowEdgeStyle&quot;,&quot;elbow&quot;:&quot;vertical&quot;,&quot;curved&quot;:0,&quot;rounded&quot;:0};" parent="MjS71RlbzoYHdgvzvM8Z-5" vertex="1">
          <mxGeometry x="45" y="80" width="10" height="110" as="geometry" />
        </mxCell>
        <mxCell id="MjS71RlbzoYHdgvzvM8Z-7" value="&amp;nbsp;/v1/sec-profile/data-update/catalog/locality" style="html=1;verticalAlign=bottom;endArrow=block;edgeStyle=elbowEdgeStyle;elbow=vertical;curved=0;rounded=0;" parent="1" source="MjS71RlbzoYHdgvzvM8Z-4" target="MjS71RlbzoYHdgvzvM8Z-6" edge="1">
          <mxGeometry relative="1" as="geometry">
            <mxPoint x="205" y="140" as="sourcePoint" />
            <Array as="points">
              <mxPoint x="190" y="130" />
            </Array>
          </mxGeometry>
        </mxCell>
        <mxCell id="MjS71RlbzoYHdgvzvM8Z-8" value="GeneralCatalogResponse();" style="html=1;verticalAlign=bottom;endArrow=open;dashed=1;endSize=8;edgeStyle=elbowEdgeStyle;elbow=vertical;curved=0;rounded=0;" parent="1" target="MjS71RlbzoYHdgvzvM8Z-4" edge="1">
          <mxGeometry relative="1" as="geometry">
            <mxPoint x="105" y="230" as="targetPoint" />
            <Array as="points">
              <mxPoint x="170" y="230" />
              <mxPoint x="260" y="245" />
              <mxPoint x="270" y="260" />
              <mxPoint x="200" y="320" />
            </Array>
            <mxPoint x="335" y="230" as="sourcePoint" />
          </mxGeometry>
        </mxCell>
        <mxCell id="MjS71RlbzoYHdgvzvM8Z-9" value="Security-Profile-service: Service" style="shape=umlLifeline;perimeter=lifelinePerimeter;whiteSpace=wrap;html=1;container=0;dropTarget=0;collapsible=0;recursiveResize=0;outlineConnect=0;portConstraint=eastwest;newEdgeStyle={&quot;edgeStyle&quot;:&quot;elbowEdgeStyle&quot;,&quot;elbow&quot;:&quot;vertical&quot;,&quot;curved&quot;:0,&quot;rounded&quot;:0};" parent="1" vertex="1">
          <mxGeometry x="630" y="50" width="100" height="220" as="geometry" />
        </mxCell>
        <mxCell id="MjS71RlbzoYHdgvzvM8Z-10" value="" style="html=1;points=[];perimeter=orthogonalPerimeter;outlineConnect=0;targetShapes=umlLifeline;portConstraint=eastwest;newEdgeStyle={&quot;edgeStyle&quot;:&quot;elbowEdgeStyle&quot;,&quot;elbow&quot;:&quot;vertical&quot;,&quot;curved&quot;:0,&quot;rounded&quot;:0};" parent="MjS71RlbzoYHdgvzvM8Z-9" vertex="1">
          <mxGeometry x="45" y="80" width="10" height="110" as="geometry" />
        </mxCell>
        <mxCell id="MjS71RlbzoYHdgvzvM8Z-11" value="AS400" style="shape=umlLifeline;perimeter=lifelinePerimeter;whiteSpace=wrap;html=1;container=0;dropTarget=0;collapsible=0;recursiveResize=0;outlineConnect=0;portConstraint=eastwest;newEdgeStyle={&quot;edgeStyle&quot;:&quot;elbowEdgeStyle&quot;,&quot;elbow&quot;:&quot;vertical&quot;,&quot;curved&quot;:0,&quot;rounded&quot;:0};" parent="1" vertex="1">
          <mxGeometry x="840" y="50" width="100" height="220" as="geometry" />
        </mxCell>
        <mxCell id="MjS71RlbzoYHdgvzvM8Z-12" value="" style="html=1;points=[];perimeter=orthogonalPerimeter;outlineConnect=0;targetShapes=umlLifeline;portConstraint=eastwest;newEdgeStyle={&quot;edgeStyle&quot;:&quot;elbowEdgeStyle&quot;,&quot;elbow&quot;:&quot;vertical&quot;,&quot;curved&quot;:0,&quot;rounded&quot;:0};" parent="MjS71RlbzoYHdgvzvM8Z-11" vertex="1">
          <mxGeometry x="45" y="80" width="10" height="110" as="geometry" />
        </mxCell>
        <mxCell id="MjS71RlbzoYHdgvzvM8Z-13" value="GetGeneralCatalog (006, &quot;ESA&quot;, &lt;br&gt;&lt;span style=&quot;white-space: pre;&quot;&gt;&#x9;&lt;/span&gt;&lt;span style=&quot;white-space: pre;&quot;&gt;&#x9;&lt;span style=&quot;white-space: pre;&quot;&gt;&#x9;&lt;/span&gt;&lt;/span&gt;&lt;span style=&quot;white-space: pre;&quot;&gt;&#x9;&lt;/span&gt;&lt;span style=&quot;white-space: pre;&quot;&gt;&#x9;&lt;/span&gt;codeDepartment, &lt;br&gt;&lt;span style=&quot;white-space: pre;&quot;&gt;&#x9;&lt;/span&gt;&lt;span style=&quot;white-space: pre;&quot;&gt;&#x9;&lt;/span&gt;&lt;span style=&quot;white-space: pre;&quot;&gt;&#x9;&lt;/span&gt;&lt;span style=&quot;white-space: pre;&quot;&gt;&#x9;&lt;/span&gt;&lt;span style=&quot;white-space: pre;&quot;&gt;&#x9;&lt;/span&gt;codeMunicipality)" style="html=1;verticalAlign=bottom;endArrow=block;edgeStyle=elbowEdgeStyle;elbow=vertical;curved=0;rounded=0;" parent="1" source="MjS71RlbzoYHdgvzvM8Z-6" target="MjS71RlbzoYHdgvzvM8Z-10" edge="1">
          <mxGeometry x="0.0013" relative="1" as="geometry">
            <mxPoint x="320" y="160" as="sourcePoint" />
            <Array as="points">
              <mxPoint x="440" y="130" />
              <mxPoint x="405" y="160" />
            </Array>
            <mxPoint x="550" y="160" as="targetPoint" />
            <mxPoint as="offset" />
          </mxGeometry>
        </mxCell>
        <mxCell id="MjS71RlbzoYHdgvzvM8Z-14" value="trx AS400:&lt;br&gt;web-catreg" style="html=1;verticalAlign=bottom;endArrow=block;edgeStyle=elbowEdgeStyle;elbow=vertical;curved=0;rounded=0;" parent="1" source="MjS71RlbzoYHdgvzvM8Z-10" target="MjS71RlbzoYHdgvzvM8Z-12" edge="1">
          <mxGeometry relative="1" as="geometry">
            <mxPoint x="650" y="130" as="sourcePoint" />
            <Array as="points">
              <mxPoint x="745" y="130" />
              <mxPoint x="710" y="160" />
            </Array>
            <mxPoint x="910" y="130" as="targetPoint" />
          </mxGeometry>
        </mxCell>
        <mxCell id="MjS71RlbzoYHdgvzvM8Z-15" value="GeneralCatalogResponse();" style="html=1;verticalAlign=bottom;endArrow=open;dashed=1;endSize=8;edgeStyle=elbowEdgeStyle;elbow=vertical;curved=0;rounded=0;" parent="1" source="MjS71RlbzoYHdgvzvM8Z-10" target="MjS71RlbzoYHdgvzvM8Z-6" edge="1">
          <mxGeometry x="0.0021" relative="1" as="geometry">
            <mxPoint x="345" y="220" as="targetPoint" />
            <Array as="points">
              <mxPoint x="480" y="220" />
              <mxPoint x="490" y="190" />
              <mxPoint x="540" y="205" />
              <mxPoint x="530" y="220" />
              <mxPoint x="425" y="260" />
            </Array>
            <mxPoint x="575" y="220" as="sourcePoint" />
            <mxPoint as="offset" />
          </mxGeometry>
        </mxCell>
        <mxCell id="MjS71RlbzoYHdgvzvM8Z-16" value="TransactionResponse();" style="html=1;verticalAlign=bottom;endArrow=open;dashed=1;endSize=8;edgeStyle=elbowEdgeStyle;elbow=vertical;curved=0;rounded=0;" parent="1" source="MjS71RlbzoYHdgvzvM8Z-12" target="MjS71RlbzoYHdgvzvM8Z-10" edge="1">
          <mxGeometry x="0.0021" relative="1" as="geometry">
            <mxPoint x="640" y="211" as="targetPoint" />
            <Array as="points">
              <mxPoint x="790" y="211" />
              <mxPoint x="840" y="226" />
              <mxPoint x="830" y="241" />
              <mxPoint x="725" y="281" />
            </Array>
            <mxPoint x="880" y="211" as="sourcePoint" />
            <mxPoint as="offset" />
          </mxGeometry>
        </mxCell>
      </root>
    </mxGraphModel>
  </diagram>
</mxfile>
